<?xml version="1.0" ?><!DOCTYPE svg  PUBLIC '-//W3C//DTD SVG 1.1//EN'  'http://www.w3.org/Graphics/SVG/1.1/DTD/svg11.dtd'><svg enable-background="new 0 0 91 91" height="91px" id="Layer_1" version="1.1" viewBox="0 0 91 91" width="91px" xml:space="preserve" xmlns="http://www.w3.org/2000/svg" xmlns:xlink="http://www.w3.org/1999/xlink"><g><g><g><path d="M25.474,28.946c0,0,7.602-9.437,22.947-9.437c5.437,0,3.442,10.541,3.442,10.541" fill="#E4E4E6"/><path d="M54.051,30.464l-4.376-0.828c0.43-2.296,0.566-6.3-0.506-7.59c-0.163-0.196-0.338-0.311-0.748-0.311     c-14.116,0-21.143,8.521-21.213,8.607l-3.468-2.794c0.338-0.418,8.457-10.266,24.681-10.266c1.691,0,3.136,0.665,4.179,1.924     C55.376,22.556,54.297,29.172,54.051,30.464z" fill="#434B56"/></g><g><path d="M25.474,64.827c0,0,7.602,9.435,22.947,9.435c5.437,0,3.442-10.54,3.442-10.54" fill="#E4E4E6"/><path d="M48.421,76.489c-16.223,0-24.343-9.846-24.681-10.266l3.463-2.799c0.288,0.35,7.209,8.61,21.218,8.61     c0.41,0,0.585-0.112,0.748-0.311c1.072-1.29,0.936-5.294,0.506-7.593l4.376-0.825c0.246,1.293,1.325,7.907-1.451,11.258     C51.557,75.824,50.112,76.489,48.421,76.489z" fill="#434B56"/></g><g><path d="M37.135,27.122c-14.369,0-26.996,7.911-34.324,19.864c7.328,11.954,19.955,19.866,34.324,19.866     c14.372,0,26.998-7.912,34.328-19.866C64.133,35.033,51.507,27.122,37.135,27.122z" fill="#B1E1F8"/><path d="M37.135,69.078c-14.649,0-28.19-7.823-36.223-20.928l-0.713-1.164l0.713-1.164     c8.033-13.103,21.574-20.926,36.223-20.926c14.647,0,28.19,7.823,36.226,20.926l0.713,1.164l-0.713,1.164     C65.325,61.255,51.782,69.078,37.135,69.078z M5.448,46.986c7.289,11.07,19.037,17.638,31.688,17.638     c12.65,0,24.399-6.565,31.689-17.638c-7.29-11.071-19.039-17.637-31.689-17.637C24.484,29.349,12.736,35.916,5.448,46.986z" fill="#434B56"/></g><path d="M44.109,56.058c-1.145,0.002-2.406-0.23-3.758-0.779c-1.14-0.462-1.689-1.76-1.227-2.898    c0.462-1.14,1.76-1.688,2.901-1.227c2.058,0.836,3.521,0.38,4.203-0.325c0.336-0.347,0.485-0.757,0.369-1.021    c-0.129-0.287-0.764-0.771-2.271-0.893c-0.566,0.044-1.094,0.024-1.547-0.05c-1.129-0.187-1.934-1.199-1.86-2.339    c0.074-1.143,1.002-2.045,2.146-2.083c0.413-0.014,0.802-0.012,1.172,0.006c0.688-0.096,1.605-0.371,2.172-0.847    c0.325-0.274,0.327-0.443,0.327-0.516c-0.365-0.563-2.87-0.922-5.261-0.614c-1.219,0.161-2.335-0.7-2.495-1.919    c-0.16-1.218,0.695-2.333,1.914-2.497c1.008-0.132,6.178-0.685,8.775,1.619c1.012,0.897,1.537,2.095,1.521,3.464    c-0.015,1.302-0.521,2.487-1.471,3.457c0.496,0.527,0.785,1.043,0.946,1.405c0.858,1.935,0.372,4.261-1.241,5.926    C48.291,55.099,46.444,56.058,44.109,56.058z" fill="#434B56"/><g><path d="M88.628,62.822c-7.016-3.469-12.966-8.979-17.165-15.838c4.199-6.851,10.149-12.364,17.165-15.832     C88.628,31.152,80.765,47.558,88.628,62.822z" fill="#B1E1F8"/><path d="M88.626,65.048c-0.334,0-0.672-0.074-0.985-0.229c-7.381-3.649-13.631-9.415-18.078-16.67     c-0.437-0.716-0.437-1.615,0.002-2.328c4.447-7.253,10.697-13.017,18.076-16.664c0.849-0.422,1.875-0.255,2.552,0.413     c0.675,0.667,0.854,1.688,0.442,2.546c-0.072,0.151-7.271,15.627-0.028,29.687c0.441,0.855,0.281,1.896-0.392,2.581     C89.786,64.818,89.21,65.048,88.626,65.048z M74.1,46.984c2.743,4.169,6.162,7.744,10.086,10.57     c-2.311-8.277-1.111-16.181,0.299-21.35C80.438,39.063,76.914,42.712,74.1,46.984z" fill="#434B56"/></g><path d="M24.622,66.545l-3.252-3.04c8.519-9.11,8.519-23.929,0-33.039l3.252-3.041    C34.71,38.21,34.71,55.76,24.622,66.545z" fill="#434B56"/><path d="M15.363,45.398c0-1.236,0.991-2.228,2.228-2.228l0,0c1.227,0,2.218,0.992,2.218,2.228l0,0    c0,1.227-0.992,2.219-2.218,2.219l0,0C16.354,47.617,15.363,46.625,15.363,45.398z" fill="#434B56"/></g></g></svg>